# xmcd
#
# Track frame offsets:
#	150
#	10172
#	23787
#	34647
#	45623
#	62548
#	74103
#	83182
#	96545
#	107426
#	123562
#	133766
#	147417
#	160188
#
# Disc length: 2237 seconds
#
# Revision: 0
# Processed by: cddbd v1.5.2PL0 Copyright (c) Steve Scherf et al.
# Submitted via: EZCDAudioConverter 3.1.7.1
#
DISCID=c208bb0e
DTITLE=Miki Lamarr - In High Fidelity
DYEAR=2012
DGENRE=Rockabilly
TTITLE0=That’s The Trouble With Love
TTITLE1=Get Ready
TTITLE2=I’m Gonna Find You
TTITLE3=No Place For Fear
TTITLE4=Just For You
TTITLE5=Oh Yeah, I’m In Love
TTITLE6=Seven-Day Weekend
TTITLE7=Have I The Right
TTITLE8=Restless
TTITLE9=Broken Man
TTITLE10=Bad Motorcycle
TTITLE11=Wishing
TTITLE12=Ain’t Gonna Kiss Ya
TTITLE13=Love Me
EXTD=
EXTT0=
EXTT1=
EXTT2=
EXTT3=
EXTT4=
EXTT5=
EXTT6=
EXTT7=
EXTT8=
EXTT9=
EXTT10=
EXTT11=
EXTT12=
EXTT13=
PLAYORDER=
